<?xml version="1.0" standalone="no"?>
<!DOCTYPE svg PUBLIC "-//W3C//DTD SVG 20010904//EN"
 "http://www.w3.org/TR/2001/REC-SVG-20010904/DTD/svg10.dtd">
<svg version="1.0" xmlns="http://www.w3.org/2000/svg"
 width="1071.000000pt" height="1071.000000pt" viewBox="0 0 1071.000000 1071.000000"
 preserveAspectRatio="xMidYMid meet">
<metadata>
Created by potrace 1.16, written by Peter Selinger 2001-2019
</metadata>
<g transform="translate(0.000000,1071.000000) scale(0.100000,-0.100000)"
fill="#000000" stroke="none">
<path d="M0 5355 l0 -5355 5355 0 5355 0 0 5355 0 5355 -5355 0 -5355 0 0
-5355z m5645 4710 c127 -73 334 -192 460 -266 127 -73 356 -205 510 -294 154
-89 341 -197 415 -240 74 -43 203 -117 285 -165 701 -404 1044 -602 1245 -718
129 -74 240 -138 245 -142 6 -4 46 -28 90 -52 44 -25 193 -110 330 -190 138
-79 276 -159 308 -177 44 -25 57 -37 52 -50 -8 -21 -191 -358 -201 -370 -3 -3
-100 51 -269 150 -49 29 -130 76 -180 104 -49 29 -148 86 -220 127 -71 41
-186 107 -254 147 -68 39 -127 71 -132 71 -5 0 -9 5 -9 10 0 6 -4 10 -9 10 -5
0 -91 48 -192 106 -101 59 -290 167 -419 242 -442 254 -555 320 -750 432 -107
62 -337 195 -510 295 -758 437 -870 501 -963 557 -54 32 -100 58 -103 58 -3 0
-65 -34 -137 -77 -73 -42 -145 -84 -162 -93 -56 -32 -280 -162 -311 -181 l-32
-19 -56 100 c-31 55 -56 102 -56 105 0 2 -22 42 -50 89 -27 47 -50 88 -50 93
0 4 192 117 427 250 370 210 429 241 447 231 12 -6 125 -71 251 -143z m-2827
-1336 c30 -52 82 -141 117 -199 34 -58 91 -154 125 -215 35 -60 64 -111 65
-113 2 -2 47 22 100 53 81 47 100 54 110 43 26 -27 218 -372 209 -375 -5 -2
-157 -89 -339 -194 -330 -191 -501 -290 -820 -475 -93 -54 -194 -111 -222
-127 l-53 -29 0 -1244 0 -1244 -225 0 -225 0 0 603 1 602 -373 13 c-205 7
-374 15 -376 16 -1 2 4 185 12 407 9 222 22 622 31 889 9 267 18 527 21 578
l6 92 96 57 c54 31 126 73 162 94 36 20 146 84 245 141 99 58 205 118 235 135
30 17 96 54 145 83 50 29 212 122 360 208 149 85 326 188 395 228 69 39 129
71 135 70 5 -1 33 -45 63 -97z m-30 -2380 l3 -67 -98 -4 c-82 -3 -108 -9 -158
-33 -129 -62 -213 -191 -223 -341 l-5 -84 -57 0 c-44 0 -59 4 -64 16 -21 54
12 226 61 317 15 29 55 79 88 112 106 105 229 155 370 152 l80 -2 3 -66z m-29
-145 c30 -6 31 -7 31 -65 l0 -59 -35 0 c-49 0 -126 -28 -157 -57 -39 -37 -68
-105 -68 -158 l0 -46 -62 3 -63 3 -3 62 c-2 34 2 80 7 101 38 139 208 244 350
216z m4100 -228 c8 -9 10 -169 9 -577 l-3 -564 -48 -3 c-59 -4 -74 7 -75 56 0
20 -1 43 -1 50 -1 8 -18 -1 -43 -23 -23 -19 -67 -48 -98 -63 -48 -24 -66 -27
-150 -27 -83 1 -101 4 -145 27 -118 62 -175 181 -175 368 0 152 36 254 117
332 60 58 123 82 223 82 92 1 135 -14 212 -75 20 -16 39 -29 42 -29 3 0 6 101
6 224 0 170 3 226 13 229 27 11 105 7 116 -7z m-4098 -25 c36 -36 37 -73 4
-106 -49 -50 -135 -15 -135 55 0 37 41 80 77 80 14 0 37 -13 54 -29z m6327
-288 l-2 -308 55 -7 c30 -3 123 -8 207 -10 l152 -4 0 72 c0 40 5 76 10 79 6 3
10 1 10 -4 0 -6 7 -11 15 -11 8 0 15 -4 15 -10 0 -5 9 -10 20 -10 11 0 28 -4
38 -9 9 -5 26 -12 37 -16 18 -6 16 -8 -12 -20 -24 -10 -31 -18 -26 -30 4 -13
14 -15 42 -10 20 3 41 13 47 21 16 21 126 20 118 -1 -4 -8 -18 -15 -34 -15
-15 0 -42 -6 -59 -13 -53 -22 -19 -37 86 -37 l94 0 -6 -117 c-2 -65 -7 -194
-10 -288 -3 -93 -17 -494 -32 -890 -14 -396 -28 -814 -32 -929 l-6 -209 -95
-55 c-174 -100 -562 -323 -845 -487 -315 -182 -921 -531 -1065 -613 -52 -30
-117 -67 -144 -83 -27 -17 -49 -28 -50 -27 -1 2 -14 22 -29 45 -27 43 -117
197 -324 558 -63 110 -124 214 -135 232 l-19 32 42 23 c105 58 98 49 69 93
-11 17 -20 35 -20 42 0 6 26 26 58 44 31 18 163 94 292 169 129 75 327 190
440 254 113 65 250 144 305 176 55 32 154 89 220 127 l120 69 2 1055 c1 580 2
1138 2 1242 l1 187 224 0 225 0 -1 -307z m-5194 161 c12 -12 16 -37 16 -105
l0 -90 106 2 c61 1 110 -3 116 -9 15 -15 15 -87 -1 -106 -11 -13 -34 -16 -117
-16 l-104 0 0 -237 c0 -207 2 -243 18 -273 23 -47 68 -59 142 -37 30 9 57 14
61 11 17 -10 21 -73 7 -101 -17 -35 -63 -52 -148 -52 -85 -1 -132 13 -176 51
-65 57 -68 73 -72 371 l-3 267 -50 0 c-71 0 -89 12 -89 60 0 66 5 70 76 70
l64 0 0 95 c0 109 4 114 87 115 34 0 57 -5 67 -16z m-1109 -539 l0 -450 -71
-3 c-52 -2 -74 1 -83 11 -8 11 -11 130 -9 453 l3 439 40 5 c22 3 58 3 80 0
l40 -5 0 -450z m676 340 c64 -33 99 -67 126 -123 l28 -57 3 -304 c2 -242 0
-306 -10 -312 -15 -10 -109 -12 -132 -3 -14 5 -16 37 -16 255 0 284 -7 335
-55 387 -28 32 -39 36 -92 40 -72 5 -121 -16 -194 -85 l-49 -46 0 -272 c0
-308 7 -285 -84 -285 -93 0 -87 -28 -84 412 2 212 6 390 11 394 4 4 31 9 60
12 66 5 89 -12 82 -63 -5 -42 6 -51 31 -24 25 28 95 68 147 85 56 18 183 12
228 -11z m1154 10 c153 -40 235 -148 243 -321 6 -131 23 -124 -315 -124 l-273
0 0 -28 c0 -89 55 -174 132 -206 47 -20 195 -21 263 -2 28 7 72 19 98 27 42
12 49 11 57 -1 11 -18 13 -80 2 -96 -38 -59 -324 -96 -460 -60 -96 26 -176 88
-218 169 -60 115 -59 339 1 457 81 159 275 235 470 185z m779 -11 c19 -7 32
-85 17 -111 -10 -19 -13 -19 -62 -7 -29 8 -64 11 -78 8 -43 -10 -98 -53 -140
-109 l-41 -54 -2 -258 -3 -258 -65 0 -65 0 -3 393 c-3 436 -9 392 63 397 50 4
55 -2 55 -66 0 -32 2 -59 5 -59 3 0 32 27 65 59 38 37 73 63 97 69 37 11 125
8 157 -4z m441 5 c163 -30 251 -136 263 -314 7 -120 22 -115 -320 -115 -153 0
-278 -1 -278 -3 0 -2 5 -30 11 -62 28 -155 105 -211 284 -208 69 0 108 7 166
27 93 32 95 32 103 1 11 -44 -3 -74 -43 -91 -100 -43 -303 -57 -402 -28 -114
33 -174 83 -222 184 -26 56 -31 79 -35 172 -4 90 -1 117 18 179 34 114 89 183
183 228 80 39 171 49 272 30z m1600 -2 c149 -32 235 -139 251 -316 6 -61 4
-71 -15 -90 -20 -20 -29 -21 -302 -21 l-282 0 7 -52 c4 -29 19 -78 34 -108 24
-47 36 -59 86 -85 55 -27 67 -30 155 -29 75 1 114 7 179 28 45 15 87 24 92 21
12 -7 13 -75 2 -91 -22 -34 -213 -68 -336 -61 -191 10 -308 99 -347 262 -15
68 -13 229 5 287 60 200 249 302 471 255z m706 -7 c57 -16 89 -46 89 -83 0
-56 -12 -63 -61 -39 -110 53 -224 54 -279 2 -25 -23 -30 -36 -30 -72 0 -63 32
-89 180 -148 68 -28 138 -62 157 -76 69 -53 92 -149 54 -236 -41 -94 -125
-139 -272 -146 -80 -4 -109 -1 -168 17 -92 28 -113 48 -109 104 4 51 13 52
108 11 80 -34 203 -40 257 -11 59 32 81 111 44 159 -21 27 -91 63 -196 102
-95 35 -129 58 -161 106 -88 133 1 288 186 324 36 7 159 -1 201 -14z m393 6
c51 -21 76 -60 76 -117 0 -39 -5 -55 -28 -80 -24 -27 -37 -33 -83 -36 -45 -4
-60 -1 -89 19 -81 55 -68 173 25 214 39 17 58 17 99 0z m-7368 -960 c0 -52 3
-98 7 -103 5 -4 22 0 38 9 l29 17 2 -172 c2 -95 2 -208 1 -252 -2 -44 -3 -138
-4 -209 l-1 -129 -24 44 c-13 24 -27 52 -30 62 -9 24 -50 22 -68 -4 -9 -13
-19 -18 -27 -14 -8 6 -10 4 -4 -5 5 -9 2 -10 -13 -6 -13 4 -22 2 -25 -6 -2 -7
-2 -3 -1 9 2 12 0 25 -6 28 -5 3 -10 0 -11 -7 0 -7 -5 -2 -10 11 -6 15 -7 159
-4 370 3 190 5 361 5 379 0 17 2 32 5 32 2 0 23 -18 47 -39 40 -38 65 -45 54
-15 -3 7 1 26 9 41 8 15 15 34 15 41 0 6 4 12 8 12 5 0 9 -42 8 -94z m1794
-126 c11 -11 20 -33 20 -50 l0 -30 -65 0 c-55 0 -65 -3 -65 -17 0 -10 4 -23 8
-30 12 -19 64 -34 95 -27 19 4 27 2 23 -4 -11 -18 -54 -22 -93 -9 -46 15 -65
58 -52 116 15 66 86 94 129 51z m310 -2 c11 -12 20 -34 20 -50 0 -28 0 -28
-65 -28 -55 0 -65 -3 -65 -17 1 -41 46 -68 97 -58 42 8 37 -10 -6 -20 -47 -10
-98 17 -110 59 -26 97 67 180 129 114z m411 -7 c74 -74 -9 -204 -100 -156 -36
18 -51 43 -51 82 0 47 10 68 38 86 41 25 79 21 113 -12z m138 18 c28 16 62 13
82 -5 16 -15 20 -15 41 0 31 22 64 20 88 -4 16 -16 20 -33 20 -95 0 -59 -3
-75 -15 -75 -11 0 -15 18 -17 83 -3 82 -3 82 -31 85 -49 6 -67 -21 -67 -100 0
-37 -4 -68 -9 -68 -5 0 -12 30 -16 68 -3 37 -7 74 -8 82 -3 22 -55 25 -78 4
-15 -14 -19 -31 -19 -86 0 -39 -4 -68 -10 -68 -6 0 -10 39 -10 96 0 83 2 95
14 85 11 -9 20 -9 35 -2z m1139 -5 c20 -13 22 -24 22 -93 l0 -78 -27 0 c-16 0
-38 -4 -50 -8 -16 -5 -28 -1 -47 19 -31 30 -33 49 -6 76 14 14 33 20 65 20 32
0 45 4 45 14 0 26 -30 46 -71 46 -24 0 -38 4 -34 10 10 15 78 12 103 -6z m519
-10 c22 -22 25 -32 21 -75 -8 -79 -57 -112 -125 -84 -61 26 -67 130 -9 170 33
24 83 19 113 -11z m419 18 c16 -11 34 -48 34 -71 0 -19 -6 -21 -65 -21 -55 0
-65 -3 -65 -17 0 -39 46 -68 91 -59 36 7 39 -9 3 -18 -60 -15 -124 34 -124 94
0 28 26 77 47 89 21 12 63 14 79 3z m954 -12 c11 -11 20 -33 20 -50 l0 -30
-65 0 c-55 0 -65 -3 -65 -17 1 -41 46 -68 97 -58 42 8 37 -10 -6 -20 -47 -10
-98 17 -110 59 -12 46 2 100 32 121 30 21 73 19 97 -5z m393 9 c16 -9 22 -9
25 0 2 6 8 9 13 5 13 -7 11 -194 -2 -232 -6 -18 -22 -35 -38 -42 -34 -14 -103
-10 -108 6 -3 8 10 10 42 6 55 -6 85 15 85 60 0 26 -3 28 -22 22 -94 -32 -158
76 -92 155 27 33 60 39 97 20z m230 -1 c18 -14 39 -73 29 -82 -3 -3 -34 -6
-69 -6 -55 0 -63 -2 -63 -18 0 -33 38 -57 86 -56 52 1 58 -11 10 -20 -71 -13
-116 23 -116 95 0 40 5 55 25 74 26 27 71 33 98 13z m587 -8 c11 -11 20 -26
20 -34 0 -8 3 -21 6 -30 5 -14 -4 -16 -65 -16 -78 0 -87 -9 -52 -51 15 -19 28
-24 65 -23 51 1 62 -11 19 -19 -39 -7 -78 2 -102 25 -32 29 -29 110 4 143 30
31 77 33 105 5z m-4161 -2511 c58 -34 147 -85 196 -114 149 -86 680 -392 1020
-588 77 -44 151 -87 165 -96 14 -9 46 -28 73 -41 l47 -25 38 21 c91 51 523
300 575 331 32 19 63 33 70 30 7 -2 59 -87 117 -188 57 -101 119 -208 137
-238 18 -30 33 -58 33 -62 0 -3 -42 -30 -92 -59 -51 -29 -122 -70 -158 -90
-610 -355 -708 -410 -721 -410 -7 0 -64 30 -128 67 -64 37 -233 134 -376 217
-143 82 -289 166 -325 186 -36 20 -101 58 -145 84 -44 26 -89 52 -100 58 -11
6 -103 60 -205 118 -102 59 -277 160 -390 225 -113 64 -211 123 -219 130 -14
13 -4 31 189 360 26 44 55 95 64 113 9 17 19 32 23 32 3 0 54 -28 112 -61z"/>
<path d="M6425 5516 c-58 -22 -111 -83 -131 -152 -21 -74 -16 -249 10 -309 35
-82 98 -125 182 -125 60 0 123 31 191 95 l53 51 0 154 0 154 -49 47 c-88 84
-176 114 -256 85z"/>
<path d="M4442 5518 c-79 -13 -139 -69 -162 -149 -18 -62 -29 -59 206 -59
l216 0 -7 38 c-11 61 -41 117 -74 141 -37 27 -118 40 -179 29z"/>
<path d="M5661 5526 c-24 -8 -57 -27 -73 -43 -38 -36 -78 -114 -78 -153 l0
-30 225 0 225 0 0 23 c0 76 -52 162 -117 196 -37 19 -134 22 -182 7z"/>
<path d="M7260 5531 c-94 -29 -145 -89 -164 -193 l-7 -38 226 0 225 0 0 43
c-1 54 -29 116 -68 149 -46 39 -150 58 -212 39z"/>
<path d="M8404 5586 c-38 -38 -44 -77 -19 -126 40 -78 160 -78 200 0 25 49 19
88 -19 126 -29 29 -41 34 -81 34 -40 0 -52 -5 -81 -34z"/>
<path d="M3577 4522 c-24 -27 -22 -97 3 -122 26 -26 50 -25 78 0 29 27 31 99
4 123 -24 22 -65 21 -85 -1z"/>
<path d="M5366 4518 c-20 -29 -21 -92 -1 -112 25 -25 54 -29 80 -12 14 9 26
24 26 34 1 9 3 27 4 40 6 59 -76 97 -109 50z"/>
<path d="M7166 4518 c-23 -32 -20 -94 4 -118 23 -23 29 -24 64 -10 24 9 26 14
26 68 0 32 -5 63 -12 70 -20 20 -65 14 -82 -10z"/>
</g>
</svg>
